<?xml version="1.0" encoding="UTF-8"?>
<svg xmlns="http://www.w3.org/2000/svg"
     xmlns:xlink="http://www.w3.org/1999/xlink"
     version="1.2"
     width="101.6mm" height="101.6mm" viewBox="0 0 101.6 101.6"
     stroke="none"
     fill="#000000"
     stroke-width="0.3"
>
<g stroke-width="0.64" stroke="#BBBBBB" id="fig-ce3c610ae7034a888a16ad54a36522e8-element-1">
  <path d="M16.05,54.76 L 17.87 52.76"/>
  <path d="M15.18,53.13 L 17.87 52.76"/>
  <path d="M8.8,57.54 L 17.87 52.76"/>
  <path d="M15.97,48.75 L 18.36 50.03"/>
  <path d="M17.35,47.51 L 18.36 50.03"/>
  <path d="M8.47,39.01 L 18.36 50.03"/>
  <path d="M51.04,54.69 L 48.4 54.08"/>
  <path d="M50.03,56.24 L 48.4 54.08"/>
  <path d="M62.3,63.11 L 48.4 54.08"/>
  <path d="M24.7,50.99 L 22.12 51.8"/>
  <path d="M24.62,52.84 L 22.12 51.8"/>
  <path d="M46.51,52.85 L 22.12 51.8"/>
  <path d="M12.47,54.31 L 10.75 56.4"/>
  <path d="M13.41,55.9 L 10.75 56.4"/>
  <path d="M26.91,46.88 L 10.75 56.4"/>
  <path d="M35.29,37.33 L 36.08 34.74"/>
  <path d="M33.81,36.22 L 36.08 34.74"/>
  <path d="M26.91,46.88 L 36.08 34.74"/>
  <path d="M13.32,38.43 L 10.72 39.17"/>
  <path d="M13.19,40.28 L 10.72 39.17"/>
  <path d="M27.59,40.38 L 10.72 39.17"/>
  <path d="M21.8,47.22 L 21.13 49.84"/>
  <path d="M23.33,48.26 L 21.13 49.84"/>
  <path d="M27.59,40.38 L 21.13 49.84"/>
  <path d="M41.99,50.98 L 44.63 51.61"/>
  <path d="M43.01,49.43 L 44.63 51.61"/>
  <path d="M27.59,40.38 L 44.63 51.61"/>
  <path d="M88.57,54.05 L 90.91 52.69"/>
  <path d="M88.24,52.23 L 90.91 52.69"/>
  <path d="M72.05,56.09 L 90.91 52.69"/>
  <path d="M81.02,72.04 L 83.17 73.7"/>
  <path d="M82.59,71.06 L 83.17 73.7"/>
  <path d="M72.05,56.09 L 83.17 73.7"/>
  <path d="M87.61,64.39 L 90.31 64.63"/>
  <path d="M88.39,62.71 L 90.31 64.63"/>
  <path d="M72.05,56.09 L 90.31 64.63"/>
  <path d="M65.65,59.55 L 64.13 61.79"/>
  <path d="M66.73,61.06 L 64.13 61.79"/>
  <path d="M72.05,56.09 L 64.13 61.79"/>
  <path d="M51.39,52.53 L 48.75 53.13"/>
  <path d="M51.16,54.37 L 48.75 53.13"/>
  <path d="M72.05,56.09 L 48.75 53.13"/>
  <path d="M54.33,16.73 L 54.92 14.08"/>
  <path d="M52.77,15.72 L 54.92 14.08"/>
  <path d="M50.15,21.51 L 54.92 14.08"/>
  <path d="M40.39,29.04 L 39.12 31.44"/>
  <path d="M41.63,30.42 L 39.12 31.44"/>
  <path d="M50.15,21.51 L 39.12 31.44"/>
  <path d="M56.46,24.75 L 59.16 24.74"/>
  <path d="M57.08,23.01 L 59.16 24.74"/>
  <path d="M50.15,21.51 L 59.16 24.74"/>
  <path d="M41.58,88.25 L 42.18 90.89"/>
  <path d="M43.42,88.49 L 42.18 90.89"/>
  <path d="M44.91,69.25 L 42.18 90.89"/>
  <path d="M38.86,37.63 L 37.68 35.19"/>
  <path d="M37.02,37.82 L 37.68 35.19"/>
  <path d="M38.89,46.99 L 37.68 35.19"/>
  <path d="M46.16,47.97 L 46.78 50.61"/>
  <path d="M48,48.19 L 46.78 50.61"/>
  <path d="M48.55,35.77 L 46.78 50.61"/>
  <path d="M30.75,43.87 L 28.91 45.85"/>
  <path d="M31.6,45.52 L 28.91 45.85"/>
  <path d="M48.55,35.77 L 28.91 45.85"/>
  <path d="M55.55,17.04 L 55.45 14.33"/>
  <path d="M53.79,16.47 L 55.45 14.33"/>
  <path d="M48.55,35.77 L 55.45 14.33"/>
  <path d="M42.33,33.23 L 39.63 33.5"/>
  <path d="M41.87,35.03 L 39.63 33.5"/>
  <path d="M48.55,35.77 L 39.63 33.5"/>
  <path d="M37.7,18.3 L 35.5 16.72"/>
  <path d="M36.18,19.35 L 35.5 16.72"/>
  <path d="M48.55,35.77 L 35.5 16.72"/>
  <path d="M32.08,38.45 L 29.79 39.9"/>
  <path d="M32.48,40.26 L 29.79 39.9"/>
  <path d="M48.55,35.77 L 29.79 39.9"/>
  <path d="M65.69,23.99 L 67.16 21.72"/>
  <path d="M64.57,22.52 L 67.16 21.72"/>
  <path d="M48.55,35.77 L 67.16 21.72"/>
  <path d="M46.39,13.1 L 45.13 10.7"/>
  <path d="M44.56,13.35 L 45.13 10.7"/>
  <path d="M48.55,35.77 L 45.13 10.7"/>
  <path d="M67.81,53.65 L 70.34 54.61"/>
  <path d="M69.02,52.25 L 70.34 54.61"/>
  <path d="M48.55,35.77 L 70.34 54.61"/>
  <path d="M50.53,26.39 L 49.89 23.76"/>
  <path d="M48.69,26.18 L 49.89 23.76"/>
  <path d="M48.55,35.77 L 49.89 23.76"/>
  <path d="M44.51,64.38 L 45.15 67.01"/>
  <path d="M46.35,64.58 L 45.15 67.01"/>
  <path d="M48.55,35.77 L 45.15 67.01"/>
  <path d="M58.13,29.23 L 59.53 26.91"/>
  <path d="M56.97,27.79 L 59.53 26.91"/>
  <path d="M48.55,35.77 L 59.53 26.91"/>
  <path d="M41.32,42.75 L 40.36 45.28"/>
  <path d="M42.73,43.96 L 40.36 45.28"/>
  <path d="M48.55,35.77 L 40.36 45.28"/>
</g>
<g stroke="#BBBBBB" fill="#AAAAFF" id="fig-ce3c610ae7034a888a16ad54a36522e8-element-2">
  <circle cx="8.8" cy="57.54" r="2.26"/>
  <circle cx="8.47" cy="39.01" r="2.26"/>
  <circle cx="93.13" cy="52.29" r="2.26"/>
  <circle cx="84.37" cy="75.61" r="2.26"/>
  <circle cx="92.35" cy="65.59" r="2.26"/>
  <circle cx="62.3" cy="63.11" r="2.26"/>
  <circle cx="41.9" cy="93.13" r="2.26"/>
  <circle cx="19.86" cy="51.71" r="2.26"/>
  <circle cx="46.51" cy="52.85" r="2.26"/>
  <circle cx="26.91" cy="46.88" r="2.26"/>
  <circle cx="56.14" cy="12.19" r="2.26"/>
  <circle cx="37.44" cy="32.94" r="2.26"/>
  <circle cx="34.23" cy="14.86" r="2.26"/>
  <circle cx="27.59" cy="40.38" r="2.26"/>
  <circle cx="68.96" cy="20.36" r="2.26"/>
  <circle cx="44.83" cy="8.47" r="2.26"/>
  <circle cx="72.05" cy="56.09" r="2.26"/>
  <circle cx="50.15" cy="21.51" r="2.26"/>
  <circle cx="44.91" cy="69.25" r="2.26"/>
  <circle cx="61.29" cy="25.49" r="2.26"/>
  <circle cx="38.89" cy="46.99" r="2.26"/>
  <circle cx="48.55" cy="35.77" r="2.26"/>
</g>
<g font-size="4" stroke="none" fill="#000000" id="fig-ce3c610ae7034a888a16ad54a36522e8-element-3">
  <text x="8.8" y="57.54" text-anchor="middle" dy="0.35em">Distance</text>
  <text x="8.47" y="39.01" text-anchor="middle" dy="0.35em">PDMats</text>
  <text x="93.13" y="52.29" text-anchor="middle" dy="0.35em">Reexport</text>
  <text x="84.37" y="75.61" text-anchor="middle" dy="0.35em">SortingAlgorithms</text>
  <text x="92.35" y="65.59" text-anchor="middle" dy="0.35em">GZip</text>
  <text x="62.3" y="63.11" text-anchor="middle" dy="0.35em">DataArrays</text>
  <text x="41.9" y="93.13" text-anchor="middle" dy="0.35em">ImmutableArrays</text>
  <text x="19.86" y="51.71" text-anchor="middle" dy="0.35em">ArrayViews</text>
  <text x="46.51" y="52.85" text-anchor="middle" dy="0.35em">StatsBase</text>
  <text x="26.91" y="46.88" text-anchor="middle" dy="0.35em">Loess</text>
  <text x="56.14" y="12.19" text-anchor="middle" dy="0.35em">JSON</text>
  <text x="37.44" y="32.94" text-anchor="middle" dy="0.35em">Iterators</text>
  <text x="34.23" y="14.86" text-anchor="middle" dy="0.35em">Hexagons</text>
  <text x="27.59" y="40.38" text-anchor="middle" dy="0.35em">Distributions</text>
  <text x="68.96" y="20.36" text-anchor="middle" dy="0.35em">Datetime</text>
  <text x="44.83" y="8.47" text-anchor="middle" dy="0.35em">DataStructures</text>
  <text x="72.05" y="56.09" text-anchor="middle" dy="0.35em">DataFrames</text>
  <text x="50.15" y="21.51" text-anchor="middle" dy="0.35em">Compose</text>
  <text x="44.91" y="69.25" text-anchor="middle" dy="0.35em">Contour</text>
  <text x="61.29" y="25.49" text-anchor="middle" dy="0.35em">Color</text>
  <text x="38.89" y="46.99" text-anchor="middle" dy="0.35em">Codecs</text>
  <text x="48.55" y="35.77" text-anchor="middle" dy="0.35em">Gadfly</text>
</g>
</svg>
