<?xml version="1.0" encoding="UTF-8"?>
<svg xmlns="http://www.w3.org/2000/svg"
     xmlns:xlink="http://www.w3.org/1999/xlink"
     version="1.2"
     width="101.6mm" height="101.6mm" viewBox="0 0 101.6 101.6"
     stroke="none"
     fill="#000000"
     stroke-width="0.3"
>
<g stroke-width="0.59" stroke="#BBBBBB" id="fig-5e0df077df49491fa0ad12844441794e-element-1">
  <path d="M18.02,26.87 L 18.85 24.51"/>
  <path d="M16.7,25.79 L 18.85 24.51"/>
  <path d="M13.39,31.18 L 18.85 24.51"/>
  <path d="M18.36,42.28 L 20.21 43.94"/>
  <path d="M19.86,41.48 L 20.21 43.94"/>
  <path d="M13.39,31.18 L 20.21 43.94"/>
  <path d="M10.49,27.74 L 12.37 29.37"/>
  <path d="M11.98,26.91 L 12.37 29.37"/>
  <path d="M8.47,22.38 L 12.37 29.37"/>
  <path d="M88.71,91.98 L 91.2 92.03"/>
  <path d="M89.32,90.39 L 91.2 92.03"/>
  <path d="M80.45,87.88 L 91.2 92.03"/>
  <path d="M76.09,88.98 L 78.37 88"/>
  <path d="M75.99,87.28 L 78.37 88"/>
  <path d="M73.55,88.28 L 78.37 88"/>
  <path d="M25.23,14.63 L 25.51 12.15"/>
  <path d="M23.71,13.87 L 25.51 12.15"/>
  <path d="M20.16,22.91 L 25.51 12.15"/>
  <path d="M13.89,14.3 L 11.72 13.08"/>
  <path d="M12.6,15.41 L 11.72 13.08"/>
  <path d="M20.16,22.91 L 11.72 13.08"/>
  <path d="M12.92,21.73 L 10.54 22.47"/>
  <path d="M12.84,23.43 L 10.54 22.47"/>
  <path d="M20.16,22.91 L 10.54 22.47"/>
  <path d="M19.62,12.73 L 18.46 10.52"/>
  <path d="M17.93,12.96 L 18.46 10.52"/>
  <path d="M20.16,22.91 L 18.46 10.52"/>
  <path d="M25.43,44.28 L 23.24 45.46"/>
  <path d="M25.68,45.96 L 23.24 45.46"/>
  <path d="M35.07,43.69 L 23.24 45.46"/>
  <path d="M37.24,48.37 L 39.26 49.82"/>
  <path d="M38.64,47.4 L 39.26 49.82"/>
  <path d="M35.07,43.69 L 39.26 49.82"/>
  <path d="M14.76,53.64 L 14.14 56.05"/>
  <path d="M16.17,54.61 L 14.14 56.05"/>
  <path d="M21.19,45.77 L 14.14 56.05"/>
  <path d="M18.92,47.56 L 18.3 49.97"/>
  <path d="M20.32,48.53 L 18.3 49.97"/>
  <path d="M21.19,45.77 L 18.3 49.97"/>
  <path d="M22.2,26.92 L 20.74 24.9"/>
  <path d="M20.57,27.39 L 20.74 24.9"/>
  <path d="M24.29,37.2 L 20.74 24.9"/>
  <path d="M21.89,41.33 L 21.89 43.82"/>
  <path d="M23.49,41.91 L 21.89 43.82"/>
  <path d="M24.29,37.2 L 21.89 43.82"/>
  <path d="M26.41,39.26 L 28.88 39.58"/>
  <path d="M27.2,37.75 L 28.88 39.58"/>
  <path d="M24.29,37.2 L 28.88 39.58"/>
  <path d="M23.89,49.37 L 22.1 47.64"/>
  <path d="M22.35,50.12 L 22.1 47.64"/>
  <path d="M27.83,59.43 L 22.1 47.64"/>
  <path d="M34.16,67.46 L 36.38 68.59"/>
  <path d="M35.41,66.3 L 36.38 68.59"/>
  <path d="M27.83,59.43 L 36.38 68.59"/>
  <path d="M61.8,88.66 L 62.46 91.06"/>
  <path d="M63.5,88.8 L 62.46 91.06"/>
  <path d="M63.37,79.82 L 62.46 91.06"/>
  <path d="M57.67,85.62 L 56.89 87.99"/>
  <path d="M59.01,86.68 L 56.89 87.99"/>
  <path d="M63.37,79.82 L 56.89 87.99"/>
  <path d="M71.65,78.61 L 73.71 77.21"/>
  <path d="M71.23,76.96 L 73.71 77.21"/>
  <path d="M63.37,79.82 L 73.71 77.21"/>
  <path d="M76.09,86.76 L 78.57 86.99"/>
  <path d="M76.82,85.22 L 78.57 86.99"/>
  <path d="M63.37,79.82 L 78.57 86.99"/>
  <path d="M69.61,86.11 L 71.95 86.95"/>
  <path d="M70.7,84.8 L 71.95 86.95"/>
  <path d="M63.37,79.82 L 71.95 86.95"/>
  <path d="M23.16,26.26 L 21.23 24.69"/>
  <path d="M21.7,27.13 L 21.23 24.69"/>
  <path d="M30.72,40.54 L 21.23 24.69"/>
  <path d="M31,41.79 L 33.39 42.48"/>
  <path d="M32,40.41 L 33.39 42.48"/>
  <path d="M30.72,40.54 L 33.39 42.48"/>
  <path d="M24.65,42.9 L 23.01 44.77"/>
  <path d="M25.47,44.39 L 23.01 44.77"/>
  <path d="M30.72,40.54 L 23.01 44.77"/>
  <path d="M26.75,40.96 L 25.08 39.12"/>
  <path d="M25.18,41.61 L 25.08 39.12"/>
  <path d="M30.71,52.84 L 25.08 39.12"/>
  <path d="M21.59,51.21 L 19.19 51.86"/>
  <path d="M21.44,52.9 L 19.19 51.86"/>
  <path d="M30.71,52.84 L 19.19 51.86"/>
  <path d="M28.82,55.04 L 28.66 57.53"/>
  <path d="M30.38,55.72 L 28.66 57.53"/>
  <path d="M30.71,52.84 L 28.66 57.53"/>
  <path d="M36.17,52.96 L 38.38 51.81"/>
  <path d="M35.95,51.28 L 38.38 51.81"/>
  <path d="M30.71,52.84 L 38.38 51.81"/>
  <path d="M32.09,59.29 L 33.67 61.22"/>
  <path d="M33.69,58.73 L 33.67 61.22"/>
  <path d="M30.71,52.84 L 33.67 61.22"/>
  <path d="M41.09,76.23 L 43.14 77.64"/>
  <path d="M42.48,75.24 L 43.14 77.64"/>
  <path d="M37.8,70.11 L 43.14 77.64"/>
  <path d="M59.61,77.35 L 61.88 78.37"/>
  <path d="M60.8,76.13 L 61.88 78.37"/>
  <path d="M43.71,60.68 L 61.88 78.37"/>
  <path d="M33.83,43.79 L 31.85 42.28"/>
  <path d="M32.4,44.71 L 31.85 42.28"/>
  <path d="M43.71,60.68 L 31.85 42.28"/>
  <path d="M42.72,55.4 L 41.13 53.48"/>
  <path d="M41.12,55.97 L 41.13 53.48"/>
  <path d="M43.71,60.68 L 41.13 53.48"/>
  <path d="M34.93,54.39 L 32.49 53.91"/>
  <path d="M34.05,55.85 L 32.49 53.91"/>
  <path d="M43.71,60.68 L 32.49 53.91"/>
  <path d="M39.42,65.92 L 38.9 68.35"/>
  <path d="M40.86,66.82 L 38.9 68.35"/>
  <path d="M43.71,60.68 L 38.9 68.35"/>
  <path d="M38.41,61.21 L 36.37 62.64"/>
  <path d="M38.85,62.86 L 36.37 62.64"/>
  <path d="M43.71,60.68 L 36.37 62.64"/>
</g>
<g stroke="#BBBBBB" fill="#AAAAFF" id="fig-5e0df077df49491fa0ad12844441794e-element-2">
  <circle cx="13.39" cy="31.18" r="2.08"/>
  <circle cx="93.13" cy="92.77" r="2.08"/>
  <circle cx="26.44" cy="10.29" r="2.08"/>
  <circle cx="10.37" cy="11.51" r="2.08"/>
  <circle cx="8.47" cy="22.38" r="2.08"/>
  <circle cx="18.18" cy="8.47" r="2.08"/>
  <circle cx="12.97" cy="57.77" r="2.08"/>
  <circle cx="62.29" cy="93.13" r="2.08"/>
  <circle cx="55.6" cy="89.61" r="2.08"/>
  <circle cx="75.73" cy="76.7" r="2.08"/>
  <circle cx="80.45" cy="87.88" r="2.08"/>
  <circle cx="73.55" cy="88.28" r="2.08"/>
  <circle cx="20.16" cy="22.91" r="2.08"/>
  <circle cx="35.07" cy="43.69" r="2.08"/>
  <circle cx="21.19" cy="45.77" r="2.08"/>
  <circle cx="24.29" cy="37.2" r="2.08"/>
  <circle cx="17.12" cy="51.68" r="2.08"/>
  <circle cx="27.83" cy="59.43" r="2.08"/>
  <circle cx="44.34" cy="79.34" r="2.08"/>
  <circle cx="63.37" cy="79.82" r="2.08"/>
  <circle cx="30.72" cy="40.54" r="2.08"/>
  <circle cx="40.44" cy="51.53" r="2.08"/>
  <circle cx="30.71" cy="52.84" r="2.08"/>
  <circle cx="37.8" cy="70.11" r="2.08"/>
  <circle cx="34.36" cy="63.17" r="2.08"/>
  <circle cx="43.71" cy="60.68" r="2.08"/>
</g>
<g font-size="4" stroke="none" fill="#000000" id="fig-5e0df077df49491fa0ad12844441794e-element-3">
  <text x="13.39" y="31.18" text-anchor="middle" dy="0.35em">LibCURL</text>
  <text x="93.13" y="92.77" text-anchor="middle" dy="0.35em">ArrayViews</text>
  <text x="26.44" y="10.29" text-anchor="middle" dy="0.35em">Zlib</text>
  <text x="10.37" y="11.51" text-anchor="middle" dy="0.35em">LibExpat</text>
  <text x="8.47" y="22.38" text-anchor="middle" dy="0.35em">HTTPClient</text>
  <text x="18.18" y="8.47" text-anchor="middle" dy="0.35em">URLParse</text>
  <text x="12.97" y="57.77" text-anchor="middle" dy="0.35em">SHA</text>
  <text x="62.29" y="93.13" text-anchor="middle" dy="0.35em">Reexport</text>
  <text x="55.6" y="89.61" text-anchor="middle" dy="0.35em">SortingAlgorithms</text>
  <text x="75.73" y="76.7" text-anchor="middle" dy="0.35em">GZip</text>
  <text x="80.45" y="87.88" text-anchor="middle" dy="0.35em">StatsBase</text>
  <text x="73.55" y="88.28" text-anchor="middle" dy="0.35em">DataArrays</text>
  <text x="20.16" y="22.91" text-anchor="middle" dy="0.35em">WinRPM</text>
  <text x="35.07" y="43.69" text-anchor="middle" dy="0.35em">Homebrew</text>
  <text x="21.19" y="45.77" text-anchor="middle" dy="0.35em">BinDeps</text>
  <text x="24.29" y="37.2" text-anchor="middle" dy="0.35em">GnuTLS</text>
  <text x="17.12" y="51.68" text-anchor="middle" dy="0.35em">URIParser</text>
  <text x="27.83" y="59.43" text-anchor="middle" dy="0.35em">HttpParser</text>
  <text x="44.34" y="79.34" text-anchor="middle" dy="0.35em">Dates</text>
  <text x="63.37" y="79.82" text-anchor="middle" dy="0.35em">DataFrames</text>
  <text x="30.72" y="40.54" text-anchor="middle" dy="0.35em">Nettle</text>
  <text x="40.44" y="51.53" text-anchor="middle" dy="0.35em">JSON</text>
  <text x="30.71" y="52.84" text-anchor="middle" dy="0.35em">Requests</text>
  <text x="37.8" y="70.11" text-anchor="middle" dy="0.35em">HttpCommon</text>
  <text x="34.36" y="63.17" text-anchor="middle" dy="0.35em">Codecs</text>
  <text x="43.71" y="60.68" text-anchor="middle" dy="0.35em">Twitter</text>
</g>
</svg>
