<?xml version="1.0" encoding="UTF-8"?>
<svg xmlns="http://www.w3.org/2000/svg"
     xmlns:xlink="http://www.w3.org/1999/xlink"
     version="1.2"
     width="101.6mm" height="101.6mm" viewBox="0 0 101.6 101.6"
     stroke="none"
     fill="#000000"
     stroke-width="0.3"
>
<g stroke-width="0.61" stroke="#BBBBBB" id="fig-a4f0cee5478e47a39d6b6d38328cd337-element-1">
  <path d="M71.7,19.73 L 73.73 21.34"/>
  <path d="M73.21,18.8 L 73.73 21.34"/>
  <path d="M65.86,8.47 L 73.73 21.34"/>
  <path d="M78.41,20.14 L 76.73 22.12"/>
  <path d="M79.29,21.68 L 76.73 22.12"/>
  <path d="M82.61,18.77 L 76.73 22.12"/>
  <path d="M75.28,48.55 L 72.79 47.82"/>
  <path d="M74.22,49.97 L 72.79 47.82"/>
  <path d="M84.16,56.19 L 72.79 47.82"/>
  <path d="M74.99,27.87 L 74.51 25.32"/>
  <path d="M73.24,27.58 L 74.51 25.32"/>
  <path d="M71.05,46.53 L 74.51 25.32"/>
  <path d="M63.81,12.68 L 64.56 10.2"/>
  <path d="M62.39,11.61 L 64.56 10.2"/>
  <path d="M54.16,24.07 L 64.56 10.2"/>
  <path d="M47.59,30.9 L 46.77 33.36"/>
  <path d="M48.98,32.01 L 46.77 33.36"/>
  <path d="M54.16,24.07 L 46.77 33.36"/>
  <path d="M66.39,46.11 L 68.97 45.94"/>
  <path d="M66.88,44.41 L 68.97 45.94"/>
  <path d="M62.68,44.12 L 68.97 45.94"/>
  <path d="M67.29,37.96 L 67.75 35.41"/>
  <path d="M65.76,37.07 L 67.75 35.41"/>
  <path d="M62.68,44.12 L 67.75 35.41"/>
  <path d="M80.13,22.74 L 81.14 20.35"/>
  <path d="M78.83,21.53 L 81.14 20.35"/>
  <path d="M68.84,33.54 L 81.14 20.35"/>
  <path d="M73.31,27.61 L 73.77 25.05"/>
  <path d="M71.78,26.72 L 73.77 25.05"/>
  <path d="M68.84,33.54 L 73.77 25.05"/>
  <path d="M69.41,42.15 L 70.69 44.4"/>
  <path d="M71.15,41.85 L 70.69 44.4"/>
  <path d="M68.84,33.54 L 70.69 44.4"/>
  <path d="M88.49,72.4 L 91.08 72.33"/>
  <path d="M89.05,70.72 L 91.08 72.33"/>
  <path d="M75.56,67.15 L 91.08 72.33"/>
  <path d="M84.66,80.65 L 86.83 82.05"/>
  <path d="M86.07,79.58 L 86.83 82.05"/>
  <path d="M75.56,67.15 L 86.83 82.05"/>
  <path d="M77.72,84.55 L 79.01 86.79"/>
  <path d="M79.46,84.24 L 79.01 86.79"/>
  <path d="M75.56,67.15 L 79.01 86.79"/>
  <path d="M82.02,60.35 L 82.82 57.89"/>
  <path d="M80.62,59.26 L 82.82 57.89"/>
  <path d="M75.56,67.15 L 82.82 57.89"/>
  <path d="M72.9,50.84 L 71.51 48.65"/>
  <path d="M71.17,51.21 L 71.51 48.65"/>
  <path d="M75.56,67.15 L 71.51 48.65"/>
  <path d="M24.96,88.8 L 24.37 91.32"/>
  <path d="M26.44,89.77 L 24.37 91.32"/>
  <path d="M34.49,75.78 L 24.37 91.32"/>
  <path d="M38.69,56.6 L 40.28 58.65"/>
  <path d="M40.38,56.06 L 40.28 58.65"/>
  <path d="M36.73,47.56 L 40.28 58.65"/>
  <path d="M43.52,39.33 L 44.19 36.82"/>
  <path d="M42.07,38.32 L 44.19 36.82"/>
  <path d="M36.73,47.56 L 44.19 36.82"/>
  <path d="M34.15,52.26 L 34.19 54.85"/>
  <path d="M35.83,52.84 L 34.19 54.85"/>
  <path d="M36.73,47.56 L 34.19 54.85"/>
  <path d="M30.57,44.94 L 27.98 45.15"/>
  <path d="M30.1,46.65 L 27.98 45.15"/>
  <path d="M36.73,47.56 L 27.98 45.15"/>
  <path d="M13.15,40.89 L 10.58 41.24"/>
  <path d="M12.77,42.62 L 10.58 41.24"/>
  <path d="M25.9,44.57 L 10.58 41.24"/>
  <path d="M66.57,47.88 L 68.9 46.75"/>
  <path d="M66.39,46.12 L 68.9 46.75"/>
  <path d="M49.68,48.71 L 68.9 46.75"/>
  <path d="M54.21,28.75 L 53.78 26.2"/>
  <path d="M52.47,28.44 L 53.78 26.2"/>
  <path d="M49.68,48.71 L 53.78 26.2"/>
  <path d="M58.64,46.48 L 60.64 44.84"/>
  <path d="M58.05,44.81 L 60.64 44.84"/>
  <path d="M49.68,48.71 L 60.64 44.84"/>
  <path d="M42.92,56.47 L 42.21 58.96"/>
  <path d="M44.36,57.51 L 42.21 58.96"/>
  <path d="M49.68,48.71 L 42.21 58.96"/>
  <path d="M47.63,39.17 L 46.06 37.11"/>
  <path d="M45.94,39.7 L 46.06 37.11"/>
  <path d="M49.68,48.71 L 46.06 37.11"/>
  <path d="M38.38,36.23 L 36.03 35.14"/>
  <path d="M37.13,37.48 L 36.03 35.14"/>
  <path d="M49.68,48.71 L 36.03 35.14"/>
  <path d="M65.79,37.09 L 67.15 34.88"/>
  <path d="M64.69,35.7 L 67.15 34.88"/>
  <path d="M49.68,48.71 L 67.15 34.88"/>
  <path d="M44.12,29.27 L 42.51 27.24"/>
  <path d="M42.44,29.83 L 42.51 27.24"/>
  <path d="M49.68,48.71 L 42.51 27.24"/>
  <path d="M37.18,54.03 L 35.41 55.92"/>
  <path d="M37.98,55.61 L 35.41 55.92"/>
  <path d="M49.68,48.71 L 35.41 55.92"/>
  <path d="M71.3,65.21 L 73.8 65.9"/>
  <path d="M72.33,63.76 L 73.8 65.9"/>
  <path d="M49.68,48.71 L 73.8 65.9"/>
  <path d="M35.96,71.34 L 35.55 73.9"/>
  <path d="M37.51,72.21 L 35.55 73.9"/>
  <path d="M49.68,48.71 L 35.55 73.9"/>
  <path d="M41.39,47.08 L 38.88 47.75"/>
  <path d="M41.23,48.85 L 38.88 47.75"/>
  <path d="M49.68,48.71 L 38.88 47.75"/>
  <path d="M30.58,44.49 L 28.03 44.94"/>
  <path d="M30.28,46.23 L 28.03 44.94"/>
  <path d="M49.68,48.71 L 28.03 44.94"/>
  <path d="M50.26,66.31 L 51.35 68.66"/>
  <path d="M52.03,66.16 L 51.35 68.66"/>
  <path d="M49.68,48.71 L 51.35 68.66"/>
</g>
<g stroke="#BBBBBB" fill="#AAAAFF" id="fig-a4f0cee5478e47a39d6b6d38328cd337-element-2">
  <circle cx="65.86" cy="8.47" r="2.16"/>
  <circle cx="82.61" cy="18.77" r="2.16"/>
  <circle cx="74.86" cy="23.19" r="2.16"/>
  <circle cx="93.13" cy="73.01" r="2.16"/>
  <circle cx="88.14" cy="83.78" r="2.16"/>
  <circle cx="79.39" cy="88.92" r="2.16"/>
  <circle cx="84.16" cy="56.19" r="2.16"/>
  <circle cx="23.19" cy="93.13" r="2.16"/>
  <circle cx="8.47" cy="40.78" r="2.16"/>
  <circle cx="71.05" cy="46.53" r="2.16"/>
  <circle cx="54.16" cy="24.07" r="2.16"/>
  <circle cx="62.68" cy="44.12" r="2.16"/>
  <circle cx="40.93" cy="60.7" r="2.16"/>
  <circle cx="45.42" cy="35.05" r="2.16"/>
  <circle cx="34.5" cy="33.61" r="2.16"/>
  <circle cx="68.84" cy="33.54" r="2.16"/>
  <circle cx="41.83" cy="25.19" r="2.16"/>
  <circle cx="33.48" cy="56.89" r="2.16"/>
  <circle cx="75.56" cy="67.15" r="2.16"/>
  <circle cx="34.49" cy="75.78" r="2.16"/>
  <circle cx="36.73" cy="47.56" r="2.16"/>
  <circle cx="25.9" cy="44.57" r="2.16"/>
  <circle cx="51.53" cy="70.82" r="2.16"/>
  <circle cx="49.68" cy="48.71" r="2.16"/>
</g>
<g font-size="4" stroke="none" fill="#000000" id="fig-a4f0cee5478e47a39d6b6d38328cd337-element-3">
  <text x="65.86" y="8.47" text-anchor="middle" dy="0.35em">Distances</text>
  <text x="82.61" y="18.77" text-anchor="middle" dy="0.35em">PDMats</text>
  <text x="74.86" y="23.19" text-anchor="middle" dy="0.35em">ArrayViews</text>
  <text x="93.13" y="73.01" text-anchor="middle" dy="0.35em">Reexport</text>
  <text x="88.14" y="83.78" text-anchor="middle" dy="0.35em">SortingAlgorithms</text>
  <text x="79.39" y="88.92" text-anchor="middle" dy="0.35em">GZip</text>
  <text x="84.16" y="56.19" text-anchor="middle" dy="0.35em">DataArrays</text>
  <text x="23.19" y="93.13" text-anchor="middle" dy="0.35em">ImmutableArrays</text>
  <text x="8.47" y="40.78" text-anchor="middle" dy="0.35em">FixedPointNumbers</text>
  <text x="71.05" y="46.53" text-anchor="middle" dy="0.35em">StatsBase</text>
  <text x="54.16" y="24.07" text-anchor="middle" dy="0.35em">Loess</text>
  <text x="62.68" y="44.12" text-anchor="middle" dy="0.35em">KernelDensity</text>
  <text x="40.93" y="60.7" text-anchor="middle" dy="0.35em">JSON</text>
  <text x="45.42" y="35.05" text-anchor="middle" dy="0.35em">Iterators</text>
  <text x="34.5" y="33.61" text-anchor="middle" dy="0.35em">Hexagons</text>
  <text x="68.84" y="33.54" text-anchor="middle" dy="0.35em">Distributions</text>
  <text x="41.83" y="25.19" text-anchor="middle" dy="0.35em">Datetime</text>
  <text x="33.48" y="56.89" text-anchor="middle" dy="0.35em">DataStructures</text>
  <text x="75.56" y="67.15" text-anchor="middle" dy="0.35em">DataFrames</text>
  <text x="34.49" y="75.78" text-anchor="middle" dy="0.35em">Contour</text>
  <text x="36.73" y="47.56" text-anchor="middle" dy="0.35em">Compose</text>
  <text x="25.9" y="44.57" text-anchor="middle" dy="0.35em">Color</text>
  <text x="51.53" y="70.82" text-anchor="middle" dy="0.35em">Codecs</text>
  <text x="49.68" y="48.71" text-anchor="middle" dy="0.35em">Gadfly</text>
</g>
</svg>
