<?xml version="1.0" encoding="UTF-8"?>
<svg xmlns="http://www.w3.org/2000/svg"
     xmlns:xlink="http://www.w3.org/1999/xlink"
     version="1.2"
     width="101.6mm" height="101.6mm" viewBox="0 0 101.6 101.6"
     stroke="none"
     fill="#000000"
     stroke-width="0.3"
>
<g stroke-width="0.54" stroke="#BBBBBB" id="fig-db1c3fdf8720468bb54fbb47ccd0fd45-element-1">
  <path d="M28.83,15.84 L 26.83 16.93"/>
  <path d="M29.07,17.39 L 26.83 16.93"/>
  <path d="M41.79,14.67 L 26.83 16.93"/>
  <path d="M42.21,20.36 L 43.42 22.3"/>
  <path d="M43.74,20.04 L 43.42 22.3"/>
  <path d="M41.79,14.67 L 43.42 22.3"/>
  <path d="M26.48,21.05 L 25.31 19.09"/>
  <path d="M24.94,21.34 L 25.31 19.09"/>
  <path d="M25.92,22.28 L 25.31 19.09"/>
  <path d="M39.71,24.51 L 41.93 23.96"/>
  <path d="M39.88,22.96 L 41.93 23.96"/>
  <path d="M25.92,22.28 L 41.93 23.96"/>
  <path d="M45.55,12.98 L 43.64 14.23"/>
  <path d="M45.91,14.49 L 43.64 14.23"/>
  <path d="M57.32,10.98 L 43.64 14.23"/>
  <path d="M41.73,20.6 L 43.18 22.36"/>
  <path d="M43.2,20.08 L 43.18 22.36"/>
  <path d="M41.96,18.91 L 43.18 22.36"/>
  <path d="M21.8,22.39 L 24.04 21.97"/>
  <path d="M22.06,20.85 L 24.04 21.97"/>
  <path d="M14.15,20.33 L 24.04 21.97"/>
  <path d="M76.52,12.44 L 78.02 10.72"/>
  <path d="M75.76,11.08 L 78.02 10.72"/>
  <path d="M68.31,16.13 L 78.02 10.72"/>
  <path d="M61.31,11.99 L 59.04 11.79"/>
  <path d="M60.65,13.4 L 59.04 11.79"/>
  <path d="M68.31,16.13 L 59.04 11.79"/>
  <path d="M12.58,14.6 L 10.35 15.05"/>
  <path d="M12.35,16.14 L 10.35 15.05"/>
  <path d="M24.95,17.22 L 10.35 15.05"/>
  <path d="M17.05,11.86 L 14.8 11.48"/>
  <path d="M16.28,13.22 L 14.8 11.48"/>
  <path d="M24.95,17.22 L 14.8 11.48"/>
  <path d="M17.82,18.46 L 15.97 19.81"/>
  <path d="M18.25,19.96 L 15.97 19.81"/>
  <path d="M24.95,17.22 L 15.97 19.81"/>
  <path d="M23.44,11.85 L 21.86 10.21"/>
  <path d="M22.01,12.48 L 21.86 10.21"/>
  <path d="M24.95,17.22 L 21.86 10.21"/>
  <path d="M38.56,21.23 L 40.22 19.66"/>
  <path d="M37.94,19.8 L 40.22 19.66"/>
  <path d="M34.48,22.15 L 40.22 19.66"/>
  <path d="M28.9,18.39 L 26.64 18.09"/>
  <path d="M28.18,19.77 L 26.64 18.09"/>
  <path d="M34.48,22.15 L 26.64 18.09"/>
  <path d="M39.7,24.07 L 41.96 23.76"/>
  <path d="M40.03,22.54 L 41.96 23.76"/>
  <path d="M34.48,22.15 L 41.96 23.76"/>
  <path d="M47.77,30.31 L 49.72 31.49"/>
  <path d="M48.99,29.33 L 49.72 31.49"/>
  <path d="M43.82,24.15 L 49.72 31.49"/>
  <path d="M48.94,89.1 L 48.84 91.38"/>
  <path d="M50.38,89.7 L 48.84 91.38"/>
  <path d="M51.67,84.55 L 48.84 91.38"/>
  <path d="M53.56,80.89 L 52.85 83.06"/>
  <path d="M54.79,81.86 L 52.85 83.06"/>
  <path d="M54.6,80.83 L 52.85 83.06"/>
  <path d="M88.71,39.92 L 90.82 39.05"/>
  <path d="M88.64,38.36 L 90.82 39.05"/>
  <path d="M78.26,39.6 L 90.82 39.05"/>
  <path d="M28.67,18.99 L 26.48 18.35"/>
  <path d="M27.74,20.25 L 26.48 18.35"/>
  <path d="M40.39,28.59 L 26.48 18.35"/>
  <path d="M37.79,24.61 L 35.76 23.55"/>
  <path d="M36.64,25.66 L 35.76 23.55"/>
  <path d="M40.39,28.59 L 35.76 23.55"/>
  <path d="M41.96,27.83 L 42.65 25.66"/>
  <path d="M40.73,26.88 L 42.65 25.66"/>
  <path d="M40.39,28.59 L 42.65 25.66"/>
  <path d="M66.51,19.83 L 67.17 17.65"/>
  <path d="M65.26,18.9 L 67.17 17.65"/>
  <path d="M60.2,26.97 L 67.17 17.65"/>
  <path d="M47.94,24.07 L 45.69 24.48"/>
  <path d="M47.67,25.61 L 45.69 24.48"/>
  <path d="M60.2,26.97 L 45.69 24.48"/>
  <path d="M74.26,40.56 L 76.36 39.68"/>
  <path d="M74.19,39 L 76.36 39.68"/>
  <path d="M58.37,40.47 L 76.36 39.68"/>
  <path d="M44.19,30.17 L 41.97 29.64"/>
  <path d="M43.33,31.47 L 41.97 29.64"/>
  <path d="M58.37,40.47 L 41.97 29.64"/>
  <path d="M54.32,35.29 L 52.25 34.32"/>
  <path d="M53.21,36.39 L 52.25 34.32"/>
  <path d="M58.37,40.47 L 52.25 34.32"/>
  <path d="M60.43,31.08 L 59.94 28.86"/>
  <path d="M58.88,30.87 L 59.94 28.86"/>
  <path d="M58.37,40.47 L 59.94 28.86"/>
  <path d="M58.69,45.6 L 59.91 47.52"/>
  <path d="M60.22,45.26 L 59.91 47.52"/>
  <path d="M58.37,40.47 L 59.91 47.52"/>
  <path d="M47.89,75.26 L 46.08 76.65"/>
  <path d="M48.36,76.75 L 46.08 76.65"/>
  <path d="M56.52,73.33 L 46.08 76.65"/>
  <path d="M61.67,77.79 L 63.88 78.35"/>
  <path d="M62.55,76.5 L 63.88 78.35"/>
  <path d="M56.52,73.33 L 63.88 78.35"/>
  <path d="M52.56,80.53 L 52.42 82.81"/>
  <path d="M53.99,81.15 L 52.42 82.81"/>
  <path d="M56.52,73.33 L 52.42 82.81"/>
  <path d="M54.85,76.72 L 55.07 78.99"/>
  <path d="M56.36,77.11 L 55.07 78.99"/>
  <path d="M56.52,73.33 L 55.07 78.99"/>
  <path d="M58.18,70.31 L 58.02 68.03"/>
  <path d="M56.68,69.88 L 58.02 68.03"/>
  <path d="M56.52,73.33 L 58.02 68.03"/>
  <path d="M89.04,67.47 L 91.32 67.39"/>
  <path d="M89.52,65.99 L 91.32 67.39"/>
  <path d="M80.5,63.9 L 91.32 67.39"/>
  <path d="M59.68,62.25 L 59.4 64.51"/>
  <path d="M61.07,62.96 L 59.4 64.51"/>
  <path d="M62.85,57.75 L 59.4 64.51"/>
  <path d="M62.24,53.03 L 60.87 51.2"/>
  <path d="M60.74,53.48 L 60.87 51.2"/>
  <path d="M62.85,57.75 L 60.87 51.2"/>
  <path d="M60.14,44.19 L 58.84 42.31"/>
  <path d="M58.63,44.58 L 58.84 42.31"/>
  <path d="M62.85,57.75 L 58.84 42.31"/>
  <path d="M57.32,69.29 L 57.23 71.57"/>
  <path d="M58.76,69.87 L 57.23 71.57"/>
  <path d="M62.85,57.75 L 57.23 71.57"/>
  <path d="M76.42,63.31 L 78.7 63.28"/>
  <path d="M76.93,61.83 L 78.7 63.28"/>
  <path d="M62.85,57.75 L 78.7 63.28"/>
  <path d="M69.21,59.83 L 71.46 59.49"/>
  <path d="M69.52,58.3 L 71.46 59.49"/>
  <path d="M62.85,57.75 L 71.46 59.49"/>
</g>
<g stroke="#BBBBBB" fill="#AAAAFF" id="fig-db1c3fdf8720468bb54fbb47ccd0fd45-element-2">
  <circle cx="41.79" cy="14.67" r="1.9"/>
  <circle cx="25.92" cy="22.28" r="1.9"/>
  <circle cx="79.68" cy="9.79" r="1.9"/>
  <circle cx="57.32" cy="10.98" r="1.9"/>
  <circle cx="41.96" cy="18.91" r="1.9"/>
  <circle cx="8.47" cy="14.77" r="1.9"/>
  <circle cx="13.14" cy="10.55" r="1.9"/>
  <circle cx="14.15" cy="20.33" r="1.9"/>
  <circle cx="21.1" cy="8.47" r="1.9"/>
  <circle cx="92.72" cy="38.97" r="1.9"/>
  <circle cx="68.31" cy="16.13" r="1.9"/>
  <circle cx="48.11" cy="93.13" r="1.9"/>
  <circle cx="24.95" cy="17.22" r="1.9"/>
  <circle cx="34.48" cy="22.15" r="1.9"/>
  <circle cx="43.82" cy="24.15" r="1.9"/>
  <circle cx="44.27" cy="77.23" r="1.9"/>
  <circle cx="65.44" cy="79.42" r="1.9"/>
  <circle cx="51.67" cy="84.55" r="1.9"/>
  <circle cx="54.6" cy="80.83" r="1.9"/>
  <circle cx="78.26" cy="39.6" r="1.9"/>
  <circle cx="40.39" cy="28.59" r="1.9"/>
  <circle cx="50.91" cy="32.97" r="1.9"/>
  <circle cx="60.2" cy="26.97" r="1.9"/>
  <circle cx="93.13" cy="67.97" r="1.9"/>
  <circle cx="58.54" cy="66.2" r="1.9"/>
  <circle cx="60.32" cy="49.38" r="1.9"/>
  <circle cx="58.37" cy="40.47" r="1.9"/>
  <circle cx="56.52" cy="73.33" r="1.9"/>
  <circle cx="80.5" cy="63.9" r="1.9"/>
  <circle cx="73.33" cy="59.86" r="1.9"/>
  <circle cx="62.85" cy="57.75" r="1.9"/>
</g>
<g font-size="4" stroke="none" fill="#000000" id="fig-db1c3fdf8720468bb54fbb47ccd0fd45-element-3">
  <text x="41.79" y="14.67" text-anchor="middle" dy="0.35em">ICU</text>
  <text x="25.92" y="22.28" text-anchor="middle" dy="0.35em">LibCURL</text>
  <text x="79.68" y="9.79" text-anchor="middle" dy="0.35em">FactCheck</text>
  <text x="57.32" y="10.98" text-anchor="middle" dy="0.35em">Calendar</text>
  <text x="41.96" y="18.91" text-anchor="middle" dy="0.35em">Homebrew</text>
  <text x="8.47" y="14.77" text-anchor="middle" dy="0.35em">Zlib</text>
  <text x="13.14" y="10.55" text-anchor="middle" dy="0.35em">LibExpat</text>
  <text x="14.15" y="20.33" text-anchor="middle" dy="0.35em">HTTPClient</text>
  <text x="21.1" y="8.47" text-anchor="middle" dy="0.35em">URLParse</text>
  <text x="92.72" y="38.97" text-anchor="middle" dy="0.35em">Iterators</text>
  <text x="68.31" y="16.13" text-anchor="middle" dy="0.35em">HttpCommon</text>
  <text x="48.11" y="93.13" text-anchor="middle" dy="0.35em">ArrayViews</text>
  <text x="24.95" y="17.22" text-anchor="middle" dy="0.35em">WinRPM</text>
  <text x="34.48" y="22.15" text-anchor="middle" dy="0.35em">Nettle</text>
  <text x="43.82" y="24.15" text-anchor="middle" dy="0.35em">BinDeps</text>
  <text x="44.27" y="77.23" text-anchor="middle" dy="0.35em">SortingAlgorithms</text>
  <text x="65.44" y="79.42" text-anchor="middle" dy="0.35em">GZip</text>
  <text x="51.67" y="84.55" text-anchor="middle" dy="0.35em">StatsBase</text>
  <text x="54.6" y="80.83" text-anchor="middle" dy="0.35em">DataArrays</text>
  <text x="78.26" y="39.6" text-anchor="middle" dy="0.35em">Codecs</text>
  <text x="40.39" y="28.59" text-anchor="middle" dy="0.35em">GnuTLS</text>
  <text x="50.91" y="32.97" text-anchor="middle" dy="0.35em">URIParser</text>
  <text x="60.2" y="26.97" text-anchor="middle" dy="0.35em">HttpParser</text>
  <text x="93.13" y="67.97" text-anchor="middle" dy="0.35em">Dates</text>
  <text x="58.54" y="66.2" text-anchor="middle" dy="0.35em">Reexport</text>
  <text x="60.32" y="49.38" text-anchor="middle" dy="0.35em">JSON</text>
  <text x="58.37" y="40.47" text-anchor="middle" dy="0.35em">Requests</text>
  <text x="56.52" y="73.33" text-anchor="middle" dy="0.35em">DataFrames</text>
  <text x="80.5" y="63.9" text-anchor="middle" dy="0.35em">TimeSeries</text>
  <text x="73.33" y="59.86" text-anchor="middle" dy="0.35em">Datetime</text>
  <text x="62.85" y="57.75" text-anchor="middle" dy="0.35em">Quandl</text>
</g>
</svg>
