<?xml version="1.0" encoding="UTF-8"?>
<svg xmlns="http://www.w3.org/2000/svg"
     xmlns:xlink="http://www.w3.org/1999/xlink"
     version="1.2"
     width="101.6mm" height="101.6mm" viewBox="0 0 101.6 101.6"
     stroke="none"
     fill="#000000"
     stroke-width="0.3"
>
<g stroke-width="1.13" stroke="#BBBBBB" id="fig-f4f376be1e314dada9929748c4f3ddf3-element-1">
  <path d="M85.35,34.65 L 89.27 31.88"/>
  <path d="M84.49,31.48 L 89.27 31.88"/>
  <path d="M70.88,36.89 L 89.27 31.88"/>
  <path d="M15.65,13.32 L 11.3 11.29"/>
  <path d="M13.33,15.64 L 11.3 11.29"/>
  <path d="M24.49,24.47 L 11.3 11.29"/>
  <path d="M63.1,40.71 L 67.02 37.94"/>
  <path d="M62.23,37.54 L 67.02 37.94"/>
  <path d="M44.37,44.1 L 67.02 37.94"/>
  <path d="M31.7,29.28 L 27.33 27.28"/>
  <path d="M29.39,31.62 L 27.33 27.28"/>
  <path d="M44.37,44.1 L 27.33 27.28"/>
  <path d="M43.75,52.75 L 43.34 47.97"/>
  <path d="M40.58,51.9 L 43.34 47.97"/>
  <path d="M37.12,71.15 L 43.34 47.97"/>
  <path d="M31.93,84.48 L 32.37 89.26"/>
  <path d="M35.1,85.32 L 32.37 89.26"/>
  <path d="M37.12,71.15 L 32.37 89.26"/>
</g>
<g stroke="#BBBBBB" fill="#AAAAFF" id="fig-f4f376be1e314dada9929748c4f3ddf3-element-2">
  <circle cx="93.13" cy="30.83" r="4"/>
  <circle cx="8.47" cy="8.47" r="4"/>
  <circle cx="70.88" cy="36.89" r="4"/>
  <circle cx="24.49" cy="24.47" r="4"/>
  <circle cx="44.37" cy="44.1" r="4"/>
  <circle cx="31.36" cy="93.13" r="4"/>
  <circle cx="37.12" cy="71.15" r="4"/>
</g>
<g font-size="4" stroke="none" fill="#000000" id="fig-f4f376be1e314dada9929748c4f3ddf3-element-3">
  <text x="93.13" y="30.83" text-anchor="middle" dy="0.35em">DataStructures</text>
  <text x="8.47" y="8.47" text-anchor="middle" dy="0.35em">Calculus</text>
  <text x="70.88" y="36.89" text-anchor="middle" dy="0.35em">Graphs</text>
  <text x="24.49" y="24.47" text-anchor="middle" dy="0.35em">DualNumbers</text>
  <text x="44.37" y="44.1" text-anchor="middle" dy="0.35em">ReverseDiffSparse</text>
  <text x="31.36" y="93.13" text-anchor="middle" dy="0.35em">MathProgBase</text>
  <text x="37.12" y="71.15" text-anchor="middle" dy="0.35em">JuMP</text>
</g>
</svg>
