<?xml version="1.0" encoding="UTF-8"?>
<svg xmlns="http://www.w3.org/2000/svg"
     xmlns:xlink="http://www.w3.org/1999/xlink"
     version="1.2"
     width="101.6mm" height="101.6mm" viewBox="0 0 101.6 101.6"
     stroke="none"
     fill="#000000"
     stroke-width="0.3"
>
<g stroke-width="0.63" stroke="#BBBBBB" id="fig-752aea5b526549e296db59f5d6ead3c2-element-1">
  <path d="M55.03,23.01 L 52.39 23.22"/>
  <path d="M54.54,24.76 L 52.39 23.22"/>
  <path d="M63.57,26.34 L 52.39 23.22"/>
  <path d="M71.13,24.18 L 73.08 22.38"/>
  <path d="M70.44,22.5 L 73.08 22.38"/>
  <path d="M63.57,26.34 L 73.08 22.38"/>
  <path d="M76.96,13.23 L 76.34 10.66"/>
  <path d="M75.16,13.03 L 76.34 10.66"/>
  <path d="M75.12,21.54 L 76.34 10.66"/>
  <path d="M84.6,16.17 L 86.14 14.01"/>
  <path d="M83.57,14.67 L 86.14 14.01"/>
  <path d="M75.12,21.54 L 86.14 14.01"/>
  <path d="M90.61,89.18 L 91.64 86.74"/>
  <path d="M89.28,87.95 L 91.64 86.74"/>
  <path d="M88.69,89.93 L 91.64 86.74"/>
  <path d="M11.7,46 L 10.72 48.46"/>
  <path d="M13.06,47.2 L 10.72 48.46"/>
  <path d="M13.73,45.09 L 10.72 48.46"/>
  <path d="M9.55,54.88 L 8.97 52.3"/>
  <path d="M7.75,54.65 L 8.97 52.3"/>
  <path d="M8.47,56.16 L 8.97 52.3"/>
  <path d="M85.45,48.29 L 87.76 46.99"/>
  <path d="M85.16,46.5 L 87.76 46.99"/>
  <path d="M72.55,49.5 L 87.76 46.99"/>
  <path d="M69.68,43.16 L 67.6 41.52"/>
  <path d="M68.14,44.11 L 67.6 41.52"/>
  <path d="M72.55,49.5 L 67.6 41.52"/>
  <path d="M65.44,30.74 L 64.03 28.5"/>
  <path d="M63.67,31.12 L 64.03 28.5"/>
  <path d="M66.43,39.65 L 64.03 28.5"/>
  <path d="M73.91,26.16 L 74.17 23.53"/>
  <path d="M72.27,25.38 L 74.17 23.53"/>
  <path d="M66.43,39.65 L 74.17 23.53"/>
  <path d="M29.16,70.66 L 26.54 71.09"/>
  <path d="M28.82,72.44 L 26.54 71.09"/>
  <path d="M37.6,73.18 L 26.54 71.09"/>
  <path d="M30.41,80.62 L 29.55 83.12"/>
  <path d="M31.82,81.76 L 29.55 83.12"/>
  <path d="M37.6,73.18 L 29.55 83.12"/>
  <path d="M84.5,87.63 L 86.99 88.52"/>
  <path d="M85.65,86.23 L 86.99 88.52"/>
  <path d="M76.43,79.78 L 86.99 88.52"/>
  <path d="M88.39,84.55 L 91.03 84.44"/>
  <path d="M88.94,82.82 L 91.03 84.44"/>
  <path d="M76.43,79.78 L 91.03 84.44"/>
  <path d="M75.97,88.49 L 77 90.93"/>
  <path d="M77.78,88.4 L 77 90.93"/>
  <path d="M76.43,79.78 L 77 90.93"/>
  <path d="M18.1,47.04 L 15.54 46.35"/>
  <path d="M17.06,48.52 L 15.54 46.35"/>
  <path d="M26.13,53.76 L 15.54 46.35"/>
  <path d="M13,54.63 L 10.65 55.87"/>
  <path d="M13.24,56.43 L 10.65 55.87"/>
  <path d="M26.13,53.76 L 10.65 55.87"/>
  <path d="M14.04,50.22 L 11.41 50.57"/>
  <path d="M13.65,51.99 L 11.41 50.57"/>
  <path d="M26.13,53.76 L 11.41 50.57"/>
  <path d="M52.51,64.48 L 51.57 66.95"/>
  <path d="M53.88,65.66 L 51.57 66.95"/>
  <path d="M56.91,60.78 L 51.57 66.95"/>
  <path d="M66.14,62.17 L 68.68 61.4"/>
  <path d="M66.24,60.36 L 68.68 61.4"/>
  <path d="M56.91,60.78 L 68.68 61.4"/>
  <path d="M69.27,52.98 L 70.76 50.79"/>
  <path d="M68.21,51.51 L 70.76 50.79"/>
  <path d="M56.91,60.78 L 70.76 50.79"/>
  <path d="M65.33,44.3 L 65.52 41.66"/>
  <path d="M63.68,43.55 L 65.52 41.66"/>
  <path d="M56.91,60.78 L 65.52 41.66"/>
  <path d="M41.06,69.88 L 39.45 71.99"/>
  <path d="M42.04,71.4 L 39.45 71.99"/>
  <path d="M56.91,60.78 L 39.45 71.99"/>
  <path d="M72.44,77.15 L 74.85 78.24"/>
  <path d="M73.7,75.85 L 74.85 78.24"/>
  <path d="M56.91,60.78 L 74.85 78.24"/>
  <path d="M59.69,66.78 L 61.79 68.39"/>
  <path d="M61.21,65.81 L 61.79 68.39"/>
  <path d="M56.91,60.78 L 61.79 68.39"/>
  <path d="M30.91,53.92 L 28.28 54.25"/>
  <path d="M30.51,55.69 L 28.28 54.25"/>
  <path d="M56.91,60.78 L 28.28 54.25"/>
</g>
<g stroke="#BBBBBB" fill="#AAAAFF" id="fig-752aea5b526549e296db59f5d6ead3c2-element-2">
  <circle cx="50.26" cy="22.62" r="2.21"/>
  <circle cx="76.58" cy="8.47" r="2.21"/>
  <circle cx="87.96" cy="12.77" r="2.21"/>
  <circle cx="89.94" cy="46.63" r="2.21"/>
  <circle cx="63.57" cy="26.34" r="2.21"/>
  <circle cx="75.12" cy="21.54" r="2.21"/>
  <circle cx="24.37" cy="70.68" r="2.21"/>
  <circle cx="28.16" cy="84.83" r="2.21"/>
  <circle cx="88.69" cy="89.93" r="2.21"/>
  <circle cx="93.13" cy="85.11" r="2.21"/>
  <circle cx="77.12" cy="93.13" r="2.21"/>
  <circle cx="13.73" cy="45.09" r="2.21"/>
  <circle cx="8.47" cy="56.16" r="2.21"/>
  <circle cx="9.26" cy="50.11" r="2.21"/>
  <circle cx="50.13" cy="68.62" r="2.21"/>
  <circle cx="70.88" cy="61.51" r="2.21"/>
  <circle cx="72.55" cy="49.5" r="2.21"/>
  <circle cx="66.43" cy="39.65" r="2.21"/>
  <circle cx="37.6" cy="73.18" r="2.21"/>
  <circle cx="76.43" cy="79.78" r="2.21"/>
  <circle cx="62.98" cy="70.25" r="2.21"/>
  <circle cx="26.13" cy="53.76" r="2.21"/>
  <circle cx="56.91" cy="60.78" r="2.21"/>
</g>
<g font-size="4" stroke="none" fill="#000000" id="fig-752aea5b526549e296db59f5d6ead3c2-element-3">
  <text x="50.26" y="22.62" text-anchor="middle" dy="0.35em">JSON</text>
  <text x="76.58" y="8.47" text-anchor="middle" dy="0.35em">SHA</text>
  <text x="87.96" y="12.77" text-anchor="middle" dy="0.35em">URIParser</text>
  <text x="89.94" y="46.63" text-anchor="middle" dy="0.35em">Zlib</text>
  <text x="63.57" y="26.34" text-anchor="middle" dy="0.35em">Homebrew</text>
  <text x="75.12" y="21.54" text-anchor="middle" dy="0.35em">BinDeps</text>
  <text x="24.37" y="70.68" text-anchor="middle" dy="0.35em">Reexport</text>
  <text x="28.16" y="84.83" text-anchor="middle" dy="0.35em">Polynomials</text>
  <text x="88.69" y="89.93" text-anchor="middle" dy="0.35em">DualNumbers</text>
  <text x="93.13" y="85.11" text-anchor="middle" dy="0.35em">Calculus</text>
  <text x="77.12" y="93.13" text-anchor="middle" dy="0.35em">Options</text>
  <text x="13.73" y="45.09" text-anchor="middle" dy="0.35em">StatsBase</text>
  <text x="8.47" y="56.16" text-anchor="middle" dy="0.35em">PDMats</text>
  <text x="9.26" y="50.11" text-anchor="middle" dy="0.35em">ArrayViews</text>
  <text x="50.13" y="68.62" text-anchor="middle" dy="0.35em">DataStructures</text>
  <text x="70.88" y="61.51" text-anchor="middle" dy="0.35em">FactCheck</text>
  <text x="72.55" y="49.5" text-anchor="middle" dy="0.35em">MAT</text>
  <text x="66.43" y="39.65" text-anchor="middle" dy="0.35em">HDF5</text>
  <text x="37.6" y="73.18" text-anchor="middle" dy="0.35em">DSP</text>
  <text x="76.43" y="79.78" text-anchor="middle" dy="0.35em">Optim</text>
  <text x="62.98" y="70.25" text-anchor="middle" dy="0.35em">Grid</text>
  <text x="26.13" y="53.76" text-anchor="middle" dy="0.35em">Distributions</text>
  <text x="56.91" y="60.78" text-anchor="middle" dy="0.35em">QuantEcon</text>
</g>
</svg>
