<?xml version="1.0" encoding="UTF-8"?>
<svg xmlns="http://www.w3.org/2000/svg"
     xmlns:xlink="http://www.w3.org/1999/xlink"
     version="1.2"
     width="101.6mm" height="101.6mm" viewBox="0 0 101.6 101.6"
     stroke="none"
     fill="#000000"
     stroke-width="0.3"
>
<g stroke-width="0.38" stroke="#BBBBBB" id="fig-b4135f8c81b54e3ea66adf1846c9fc9c-element-1">
  <path d="M10.91,82.5 L 9.71 83.56"/>
  <path d="M11.31,83.52 L 9.71 83.56"/>
  <path d="M24.85,77.63 L 9.71 83.56"/>
  <path d="M13.27,87.05 L 12.5 88.45"/>
  <path d="M13.99,87.87 L 12.5 88.45"/>
  <path d="M24.85,77.63 L 12.5 88.45"/>
  <path d="M17.12,90.39 L 16.87 91.97"/>
  <path d="M18.08,90.92 L 16.87 91.97"/>
  <path d="M24.85,77.63 L 16.87 91.97"/>
  <path d="M26.73,80.03 L 28.22 80.62"/>
  <path d="M27.46,79.22 L 28.22 80.62"/>
  <path d="M24.85,77.63 L 28.22 80.62"/>
  <path d="M36.76,57.21 L 37.01 55.63"/>
  <path d="M35.8,56.68 L 37.01 55.63"/>
  <path d="M24.85,77.63 L 37.01 55.63"/>
  <path d="M38.4,73 L 39.61 71.95"/>
  <path d="M38.01,71.98 L 39.61 71.95"/>
  <path d="M24.85,77.63 L 39.61 71.95"/>
  <path d="M19.37,32.37 L 17.77 32.38"/>
  <path d="M19.01,33.4 L 17.77 32.38"/>
  <path d="M33,37.81 L 17.77 32.38"/>
  <path d="M36.37,51.88 L 37.3 53.18"/>
  <path d="M37.42,51.58 L 37.3 53.18"/>
  <path d="M33,37.81 L 37.3 53.18"/>
  <path d="M78.41,44.23 L 79.92 44.76"/>
  <path d="M79.11,43.38 L 79.92 44.76"/>
  <path d="M67.78,34.73 L 79.92 44.76"/>
  <path d="M70.76,10.98 L 71.31 9.48"/>
  <path d="M69.92,10.28 L 71.31 9.48"/>
  <path d="M60.43,22.31 L 71.31 9.48"/>
  <path d="M39.93,52.67 L 38.84 53.85"/>
  <path d="M40.43,53.65 L 38.84 53.85"/>
  <path d="M43.3,51.55 L 38.84 53.85"/>
  <path d="M35.79,37.04 L 34.33 37.7"/>
  <path d="M35.88,38.13 L 34.33 37.7"/>
  <path d="M50.92,36.39 L 34.33 37.7"/>
  <path d="M48.95,28.53 L 47.97 27.27"/>
  <path d="M47.91,28.87 L 47.97 27.27"/>
  <path d="M50.92,36.39 L 47.97 27.27"/>
  <path d="M55.65,31.56 L 56.19 30.05"/>
  <path d="M54.81,30.86 L 56.19 30.05"/>
  <path d="M50.92,36.39 L 56.19 30.05"/>
  <path d="M52.95,29.34 L 52.72 27.76"/>
  <path d="M51.88,29.12 L 52.72 27.76"/>
  <path d="M50.92,36.39 L 52.72 27.76"/>
  <path d="M59.3,24.97 L 59.69 23.41"/>
  <path d="M58.39,24.35 L 59.69 23.41"/>
  <path d="M50.92,36.39 L 59.69 23.41"/>
  <path d="M49.81,48.48 L 50.29 50.01"/>
  <path d="M50.91,48.53 L 50.29 50.01"/>
  <path d="M50.92,36.39 L 50.29 50.01"/>
  <path d="M47.71,33.02 L 46.21 32.48"/>
  <path d="M47.01,33.86 L 46.21 32.48"/>
  <path d="M50.92,36.39 L 46.21 32.48"/>
  <path d="M79.02,47.77 L 79.89 46.42"/>
  <path d="M78.36,46.9 L 79.89 46.42"/>
  <path d="M74.66,50.41 L 79.89 46.42"/>
  <path d="M45.14,84.94 L 46.14 86.19"/>
  <path d="M46.17,84.59 L 46.14 86.19"/>
  <path d="M40.19,68.61 L 46.14 86.19"/>
  <path d="M24.2,75.45 L 23.07 76.58"/>
  <path d="M24.66,76.44 L 23.07 76.58"/>
  <path d="M40.19,68.61 L 23.07 76.58"/>
  <path d="M31.45,72.74 L 30.39 73.94"/>
  <path d="M31.97,73.7 L 30.39 73.94"/>
  <path d="M40.19,68.61 L 30.39 73.94"/>
  <path d="M30.63,79 L 30.08 80.5"/>
  <path d="M31.47,79.71 L 30.08 80.5"/>
  <path d="M40.19,68.61 L 30.08 80.5"/>
  <path d="M36.71,80.37 L 36.88 81.97"/>
  <path d="M37.77,80.64 L 36.88 81.97"/>
  <path d="M40.19,68.61 L 36.88 81.97"/>
  <path d="M27.02,75.72 L 26 76.95"/>
  <path d="M27.57,76.66 L 26 76.95"/>
  <path d="M40.19,68.61 L 26 76.95"/>
  <path d="M32.4,83.92 L 32.26 85.51"/>
  <path d="M33.4,84.38 L 32.26 85.51"/>
  <path d="M40.19,68.61 L 32.26 85.51"/>
  <path d="M37.46,85.9 L 37.82 87.46"/>
  <path d="M38.55,86.04 L 37.82 87.46"/>
  <path d="M40.19,68.61 L 37.82 87.46"/>
  <path d="M24.4,70.79 L 23.02 71.58"/>
  <path d="M24.59,71.87 L 23.02 71.58"/>
  <path d="M40.19,68.61 L 23.02 71.58"/>
  <path d="M23.8,66.94 L 22.26 67.38"/>
  <path d="M23.72,68.03 L 22.26 67.38"/>
  <path d="M40.19,68.61 L 22.26 67.38"/>
  <path d="M27.86,65.07 L 26.27 65.25"/>
  <path d="M27.6,66.14 L 26.27 65.25"/>
  <path d="M40.19,68.61 L 26.27 65.25"/>
  <path d="M41.18,83.33 L 41.88 84.77"/>
  <path d="M42.27,83.21 L 41.88 84.77"/>
  <path d="M40.19,68.61 L 41.88 84.77"/>
  <path d="M36.49,51.29 L 35.6 49.96"/>
  <path d="M35.43,51.55 L 35.6 49.96"/>
  <path d="M40.19,68.61 L 35.6 49.96"/>
  <path d="M39.71,51.13 L 39.07 49.66"/>
  <path d="M38.61,51.19 L 39.07 49.66"/>
  <path d="M40.19,68.61 L 39.07 49.66"/>
  <path d="M47.55,79.99 L 48.86 80.9"/>
  <path d="M48.44,79.36 L 48.86 80.9"/>
  <path d="M40.19,68.61 L 48.86 80.9"/>
  <path d="M59.49,71.07 L 61.04 70.68"/>
  <path d="M59.6,69.99 L 61.04 70.68"/>
  <path d="M40.19,68.61 L 61.04 70.68"/>
  <path d="M43.33,54.44 L 43.06 52.86"/>
  <path d="M42.25,54.24 L 43.06 52.86"/>
  <path d="M40.19,68.61 L 43.06 52.86"/>
  <path d="M50.97,69.56 L 52.49 69.07"/>
  <path d="M51.01,68.47 L 52.49 69.07"/>
  <path d="M40.19,68.61 L 52.49 69.07"/>
  <path d="M49.28,54.07 L 49.56 52.49"/>
  <path d="M48.33,53.52 L 49.56 52.49"/>
  <path d="M40.19,68.61 L 49.56 52.49"/>
  <path d="M45.76,52.89 L 45.69 51.29"/>
  <path d="M44.72,52.56 L 45.69 51.29"/>
  <path d="M40.19,68.61 L 45.69 51.29"/>
  <path d="M38.7,57.16 L 37.89 55.77"/>
  <path d="M37.62,57.35 L 37.89 55.77"/>
  <path d="M40.19,68.61 L 37.89 55.77"/>
  <path d="M43.69,65.07 L 44.19 63.55"/>
  <path d="M42.83,64.39 L 44.19 63.55"/>
  <path d="M40.19,68.61 L 44.19 63.55"/>
  <path d="M49.43,72.81 L 51.03 72.85"/>
  <path d="M49.83,71.79 L 51.03 72.85"/>
  <path d="M40.19,68.61 L 51.03 72.85"/>
  <path d="M48.02,65.63 L 49.16 64.51"/>
  <path d="M47.57,64.64 L 49.16 64.51"/>
  <path d="M40.19,68.61 L 49.16 64.51"/>
  <path d="M46.64,68.95 L 48.13 68.35"/>
  <path d="M46.61,67.85 L 48.13 68.35"/>
  <path d="M40.19,68.61 L 48.13 68.35"/>
  <path d="M54.94,67.66 L 56.38 66.96"/>
  <path d="M54.83,66.57 L 56.38 66.96"/>
  <path d="M40.19,68.61 L 56.38 66.96"/>
  <path d="M39.68,68.83 L 40.55 70.17"/>
  <path d="M40.75,68.58 L 40.55 70.17"/>
  <path d="M40.19,68.61 L 40.55 70.17"/>
  <path d="M35.29,36.03 L 34.19 37.2"/>
  <path d="M35.78,37.01 L 34.19 37.2"/>
  <path d="M45.18,31.63 L 34.19 37.2"/>
  <path d="M36.23,45.94 L 35.95 47.52"/>
  <path d="M37.18,46.49 L 35.95 47.52"/>
  <path d="M45.18,31.63 L 35.95 47.52"/>
  <path d="M41.42,20.11 L 40.38 18.9"/>
  <path d="M40.4,20.5 L 40.38 18.9"/>
  <path d="M45.18,31.63 L 40.38 18.9"/>
  <path d="M38.23,16.36 L 37.07 15.26"/>
  <path d="M37.25,16.85 L 37.07 15.26"/>
  <path d="M45.18,31.63 L 37.07 15.26"/>
  <path d="M64.89,34.88 L 66.46 34.54"/>
  <path d="M65.04,33.8 L 66.46 34.54"/>
  <path d="M45.18,31.63 L 66.46 34.54"/>
  <path d="M46.68,19.7 L 46.25 18.15"/>
  <path d="M45.59,19.61 L 46.25 18.15"/>
  <path d="M45.18,31.63 L 46.25 18.15"/>
  <path d="M54.71,20.16 L 55.2 18.64"/>
  <path d="M53.85,19.49 L 55.2 18.64"/>
  <path d="M45.18,31.63 L 55.2 18.64"/>
  <path d="M43.06,15.07 L 42.28 13.67"/>
  <path d="M41.98,15.24 L 42.28 13.67"/>
  <path d="M45.18,31.63 L 42.28 13.67"/>
  <path d="M51.84,17.35 L 51.93 15.75"/>
  <path d="M50.84,16.92 L 51.93 15.75"/>
  <path d="M45.18,31.63 L 51.93 15.75"/>
  <path d="M34.4,18.94 L 32.98 18.2"/>
  <path d="M33.59,19.68 L 32.98 18.2"/>
  <path d="M45.18,31.63 L 32.98 18.2"/>
  <path d="M46.96,28.83 L 47.04 27.23"/>
  <path d="M45.95,28.4 L 47.04 27.23"/>
  <path d="M45.18,31.63 L 47.04 27.23"/>
  <path d="M32.31,27.27 L 30.71 27.37"/>
  <path d="M32,28.32 L 30.71 27.37"/>
  <path d="M45.18,31.63 L 30.71 27.37"/>
  <path d="M39.46,45.48 L 39.45 47.08"/>
  <path d="M40.49,45.86 L 39.45 47.08"/>
  <path d="M45.18,31.63 L 39.45 47.08"/>
  <path d="M37.58,23.47 L 36.12 22.81"/>
  <path d="M36.82,24.25 L 36.12 22.81"/>
  <path d="M45.18,31.63 L 36.12 22.81"/>
  <path d="M47.97,15.05 L 47.63 13.48"/>
  <path d="M46.89,14.9 L 47.63 13.48"/>
  <path d="M45.18,31.63 L 47.63 13.48"/>
  <path d="M54.39,30.17 L 55.74 29.31"/>
  <path d="M54.15,29.1 L 55.74 29.31"/>
  <path d="M45.18,31.63 L 55.74 29.31"/>
  <path d="M50.93,28.47 L 51.88 27.19"/>
  <path d="M50.33,27.56 L 51.88 27.19"/>
  <path d="M45.18,31.63 L 51.88 27.19"/>
  <path d="M32.15,23.13 L 30.58 22.82"/>
  <path d="M31.59,24.07 L 30.58 22.82"/>
  <path d="M45.18,31.63 L 30.58 22.82"/>
  <path d="M58.3,24.25 L 59.3 23"/>
  <path d="M57.73,23.32 L 59.3 23"/>
  <path d="M45.18,31.63 L 59.3 23"/>
  <path d="M43.02,48.67 L 43.43 50.22"/>
  <path d="M44.11,48.77 L 43.43 50.22"/>
  <path d="M45.18,31.63 L 43.43 50.22"/>
  <path d="M49,48.73 L 49.9 50.05"/>
  <path d="M50.06,48.45 L 49.9 50.05"/>
  <path d="M45.18,31.63 L 49.9 50.05"/>
  <path d="M45.41,47.21 L 46.03 48.69"/>
  <path d="M46.5,47.16 L 46.03 48.69"/>
  <path d="M45.18,31.63 L 46.03 48.69"/>
  <path d="M38.02,51.6 L 38.07 53.19"/>
  <path d="M39.06,51.94 L 38.07 53.19"/>
  <path d="M45.18,31.63 L 38.07 53.19"/>
  <path d="M53.61,40.48 L 55.07 41.13"/>
  <path d="M54.36,39.69 L 55.07 41.13"/>
  <path d="M45.18,31.63 L 55.07 41.13"/>
  <path d="M49.94,79.12 L 50.02 80.72"/>
  <path d="M50.98,79.44 L 50.02 80.72"/>
  <path d="M52.28,73.34 L 50.02 80.72"/>
  <path d="M64.38,68.74 L 63.46 70.05"/>
  <path d="M65.01,69.64 L 63.46 70.05"/>
  <path d="M76.8,60.76 L 63.46 70.05"/>
  <path d="M90.25,64.72 L 91.84 64.56"/>
  <path d="M90.52,63.66 L 91.84 64.56"/>
  <path d="M76.8,60.76 L 91.84 64.56"/>
  <path d="M80.73,48.49 L 80.6 46.9"/>
  <path d="M79.67,48.2 L 80.6 46.9"/>
  <path d="M76.8,60.76 L 80.6 46.9"/>
  <path d="M68.66,79.04 L 70.09 79.74"/>
  <path d="M69.45,78.28 L 70.09 79.74"/>
  <path d="M57.7,66.83 L 70.09 79.74"/>
  <path d="M51.96,53.66 L 50.81 52.54"/>
  <path d="M50.97,54.13 L 50.81 52.54"/>
  <path d="M57.7,66.83 L 50.81 52.54"/>
  <path d="M68.55,66.22 L 70.11 66.57"/>
  <path d="M69.13,65.3 L 70.11 66.57"/>
  <path d="M55.09,57 L 70.11 66.57"/>
  <path d="M46.11,52.24 L 44.51 52.11"/>
  <path d="M45.65,53.24 L 44.51 52.11"/>
  <path d="M55.09,57 L 44.51 52.11"/>
  <path d="M53.57,66.24 L 53.96 67.79"/>
  <path d="M54.66,66.35 L 53.96 67.79"/>
  <path d="M55.09,57 L 53.96 67.79"/>
  <path d="M52.49,53.14 L 51.1 52.35"/>
  <path d="M51.66,53.85 L 51.1 52.35"/>
  <path d="M55.09,57 L 51.1 52.35"/>
  <path d="M52.01,39.06 L 51.18 37.7"/>
  <path d="M50.94,39.28 L 51.18 37.7"/>
  <path d="M55.09,57 L 51.18 37.7"/>
  <path d="M72.15,51.83 L 73.4 50.83"/>
  <path d="M71.8,50.8 L 73.4 50.83"/>
  <path d="M55.09,57 L 73.4 50.83"/>
  <path d="M42.1,66.43 L 41.25 67.79"/>
  <path d="M42.77,67.3 L 41.25 67.79"/>
  <path d="M55.09,57 L 41.25 67.79"/>
  <path d="M46.72,34.07 L 45.66 32.87"/>
  <path d="M45.7,34.47 L 45.66 32.87"/>
  <path d="M55.09,57 L 45.66 32.87"/>
  <path d="M48.67,51.33 L 47.15 50.84"/>
  <path d="M48,52.19 L 47.15 50.84"/>
  <path d="M55.09,57 L 47.15 50.84"/>
  <path d="M40.54,54.33 L 38.98 54.65"/>
  <path d="M40.38,55.41 L 38.98 54.65"/>
  <path d="M55.09,57 L 38.98 54.65"/>
  <path d="M47.25,60.67 L 46.19 61.87"/>
  <path d="M47.77,61.63 L 46.19 61.87"/>
  <path d="M55.09,57 L 46.19 61.87"/>
  <path d="M52.22,70.45 L 52.5 72.02"/>
  <path d="M53.3,70.63 L 52.5 72.02"/>
  <path d="M55.09,57 L 52.5 72.02"/>
  <path d="M51.51,61.3 L 51.12 62.85"/>
  <path d="M52.42,61.91 L 51.12 62.85"/>
  <path d="M55.09,57 L 51.12 62.85"/>
  <path d="M50.23,65.52 L 50.05 67.11"/>
  <path d="M51.21,66.01 L 50.05 67.11"/>
  <path d="M55.09,57 L 50.05 67.11"/>
  <path d="M69.31,57.32 L 70.8 56.74"/>
  <path d="M69.29,56.22 L 70.8 56.74"/>
  <path d="M55.09,57 L 70.8 56.74"/>
  <path d="M73.91,60.82 L 75.48 60.53"/>
  <path d="M74.1,59.74 L 75.48 60.53"/>
  <path d="M55.09,57 L 75.48 60.53"/>
  <path d="M56.44,64.23 L 57.36 65.54"/>
  <path d="M57.5,63.95 L 57.36 65.54"/>
  <path d="M55.09,57 L 57.36 65.54"/>
  <path d="M42.45,69.06 L 41.79 70.52"/>
  <path d="M43.23,69.83 L 41.79 70.52"/>
  <path d="M55.09,57 L 41.79 70.52"/>
  <path d="M67.33,61.79 L 68.93 61.76"/>
  <path d="M67.69,60.75 L 68.93 61.76"/>
  <path d="M55.09,57 L 68.93 61.76"/>
  <path d="M56.4,44.91 L 55.95 43.38"/>
  <path d="M55.31,44.85 L 55.95 43.38"/>
  <path d="M55.09,57 L 55.95 43.38"/>
  <path d="M66.6,52.46 L 67.75 51.35"/>
  <path d="M66.15,51.46 L 67.75 51.35"/>
  <path d="M55.09,57 L 67.75 51.35"/>
</g>
<g stroke="#BBBBBB" fill="#AAAAFF" id="fig-b4135f8c81b54e3ea66adf1846c9fc9c-element-2">
  <circle cx="16.52" cy="31.94" r="1.33"/>
  <circle cx="8.47" cy="84.04" r="1.33"/>
  <circle cx="11.5" cy="89.33" r="1.33"/>
  <circle cx="16.22" cy="93.13" r="1.33"/>
  <circle cx="72.18" cy="8.47" r="1.33"/>
  <circle cx="46.56" cy="87.46" r="1.33"/>
  <circle cx="21.86" cy="77.15" r="1.33"/>
  <circle cx="29.21" cy="74.58" r="1.33"/>
  <circle cx="29.21" cy="81.51" r="1.33"/>
  <circle cx="36.56" cy="83.26" r="1.33"/>
  <circle cx="24.85" cy="77.63" r="1.33"/>
  <circle cx="31.69" cy="86.72" r="1.33"/>
  <circle cx="37.65" cy="88.79" r="1.33"/>
  <circle cx="21.7" cy="71.81" r="1.33"/>
  <circle cx="20.93" cy="67.29" r="1.33"/>
  <circle cx="24.97" cy="64.94" r="1.33"/>
  <circle cx="42.02" cy="86.09" r="1.33"/>
  <circle cx="33" cy="37.81" r="1.33"/>
  <circle cx="35.28" cy="48.67" r="1.33"/>
  <circle cx="39.91" cy="17.65" r="1.33"/>
  <circle cx="36.48" cy="14.06" r="1.33"/>
  <circle cx="67.78" cy="34.73" r="1.33"/>
  <circle cx="46.36" cy="16.82" r="1.33"/>
  <circle cx="56.01" cy="17.58" r="1.33"/>
  <circle cx="42.07" cy="12.35" r="1.33"/>
  <circle cx="52.45" cy="14.52" r="1.33"/>
  <circle cx="32.09" cy="17.21" r="1.33"/>
  <circle cx="47.55" cy="26" r="1.33"/>
  <circle cx="29.43" cy="27" r="1.33"/>
  <circle cx="38.99" cy="48.33" r="1.33"/>
  <circle cx="35.16" cy="21.88" r="1.33"/>
  <circle cx="47.81" cy="12.16" r="1.33"/>
  <circle cx="57.04" cy="29.03" r="1.33"/>
  <circle cx="53" cy="26.45" r="1.33"/>
  <circle cx="29.44" cy="22.13" r="1.33"/>
  <circle cx="60.43" cy="22.31" r="1.33"/>
  <circle cx="49.63" cy="81.99" r="1.33"/>
  <circle cx="62.37" cy="70.81" r="1.33"/>
  <circle cx="93.13" cy="64.88" r="1.33"/>
  <circle cx="80.95" cy="45.61" r="1.33"/>
  <circle cx="71.02" cy="80.7" r="1.33"/>
  <circle cx="71.23" cy="67.28" r="1.33"/>
  <circle cx="43.3" cy="51.55" r="1.33"/>
  <circle cx="53.82" cy="69.12" r="1.33"/>
  <circle cx="50.23" cy="51.34" r="1.33"/>
  <circle cx="50.92" cy="36.39" r="1.33"/>
  <circle cx="74.66" cy="50.41" r="1.33"/>
  <circle cx="40.19" cy="68.61" r="1.33"/>
  <circle cx="45.18" cy="31.63" r="1.33"/>
  <circle cx="46.1" cy="50.02" r="1.33"/>
  <circle cx="37.66" cy="54.46" r="1.33"/>
  <circle cx="45.02" cy="62.51" r="1.33"/>
  <circle cx="52.28" cy="73.34" r="1.33"/>
  <circle cx="50.38" cy="63.96" r="1.33"/>
  <circle cx="49.46" cy="68.31" r="1.33"/>
  <circle cx="72.14" cy="56.72" r="1.33"/>
  <circle cx="76.8" cy="60.76" r="1.33"/>
  <circle cx="57.7" cy="66.83" r="1.33"/>
  <circle cx="40.85" cy="71.47" r="1.33"/>
  <circle cx="70.19" cy="62.19" r="1.33"/>
  <circle cx="56.03" cy="42.05" r="1.33"/>
  <circle cx="68.97" cy="50.81" r="1.33"/>
  <circle cx="55.09" cy="57" r="1.33"/>
</g>
<g font-size="4" stroke="none" fill="#000000" id="fig-b4135f8c81b54e3ea66adf1846c9fc9c-element-3">
  <text x="16.52" y="31.94" text-anchor="middle" dy="0.35em">KernSmooth</text>
  <text x="8.47" y="84.04" text-anchor="middle" dy="0.35em">RegERMs</text>
  <text x="11.5" y="89.33" text-anchor="middle" dy="0.35em">NLsolve</text>
  <text x="16.22" y="93.13" text-anchor="middle" dy="0.35em">Regression</text>
  <text x="72.18" y="8.47" text-anchor="middle" dy="0.35em">FunctionalCollections</text>
  <text x="46.56" y="87.46" text-anchor="middle" dy="0.35em">GARCH</text>
  <text x="21.86" y="77.15" text-anchor="middle" dy="0.35em">Ito</text>
  <text x="29.21" y="74.58" text-anchor="middle" dy="0.35em">HypothesisTests</text>
  <text x="29.21" y="81.51" text-anchor="middle" dy="0.35em">LsqFit</text>
  <text x="36.56" y="83.26" text-anchor="middle" dy="0.35em">Church</text>
  <text x="24.85" y="77.63" text-anchor="middle" dy="0.35em">Optim</text>
  <text x="31.69" y="86.72" text-anchor="middle" dy="0.35em">KLDivergence</text>
  <text x="37.65" y="88.79" text-anchor="middle" dy="0.35em">LARS</text>
  <text x="21.7" y="71.81" text-anchor="middle" dy="0.35em">ChemicalKinetics</text>
  <text x="20.93" y="67.29" text-anchor="middle" dy="0.35em">SDE</text>
  <text x="24.97" y="64.94" text-anchor="middle" dy="0.35em">ReverseDiffOverload</text>
  <text x="42.02" y="86.09" text-anchor="middle" dy="0.35em">RandomMatrices</text>
  <text x="33" y="37.81" text-anchor="middle" dy="0.35em">RDatasets</text>
  <text x="35.28" y="48.67" text-anchor="middle" dy="0.35em">MixedModels</text>
  <text x="39.91" y="17.65" text-anchor="middle" dy="0.35em">TextAnalysis</text>
  <text x="36.48" y="14.06" text-anchor="middle" dy="0.35em">ODBC</text>
  <text x="67.78" y="34.73" text-anchor="middle" dy="0.35em">DimensionalityReduction</text>
  <text x="46.36" y="16.82" text-anchor="middle" dy="0.35em">Taro</text>
  <text x="56.01" y="17.58" text-anchor="middle" dy="0.35em">Quandl</text>
  <text x="42.07" y="12.35" text-anchor="middle" dy="0.35em">PySide</text>
  <text x="52.45" y="14.52" text-anchor="middle" dy="0.35em">ProjectTemplate</text>
  <text x="32.09" y="17.21" text-anchor="middle" dy="0.35em">Twitter</text>
  <text x="47.55" y="26" text-anchor="middle" dy="0.35em">SQLite</text>
  <text x="29.43" y="27" text-anchor="middle" dy="0.35em">GeoIP</text>
  <text x="38.99" y="48.33" text-anchor="middle" dy="0.35em">GLMNet</text>
  <text x="35.16" y="21.88" text-anchor="middle" dy="0.35em">UAParser</text>
  <text x="47.81" y="12.16" text-anchor="middle" dy="0.35em">Resampling</text>
  <text x="57.04" y="29.03" text-anchor="middle" dy="0.35em">TimeData</text>
  <text x="53" y="26.45" text-anchor="middle" dy="0.35em">GoogleCharts</text>
  <text x="29.44" y="22.13" text-anchor="middle" dy="0.35em">kNN</text>
  <text x="60.43" y="22.31" text-anchor="middle" dy="0.35em">Benchmark</text>
  <text x="49.63" y="81.99" text-anchor="middle" dy="0.35em">ZVSimulator</text>
  <text x="62.37" y="70.81" text-anchor="middle" dy="0.35em">MixtureModels</text>
  <text x="93.13" y="64.88" text-anchor="middle" dy="0.35em">NMF</text>
  <text x="80.95" y="45.61" text-anchor="middle" dy="0.35em">Orchestra</text>
  <text x="71.02" y="80.7" text-anchor="middle" dy="0.35em">GradientBoost</text>
  <text x="71.23" y="67.28" text-anchor="middle" dy="0.35em">MarketTechnicals</text>
  <text x="43.3" y="51.55" text-anchor="middle" dy="0.35em">Gadfly</text>
  <text x="53.82" y="69.12" text-anchor="middle" dy="0.35em">KernelDensity</text>
  <text x="50.23" y="51.34" text-anchor="middle" dy="0.35em">RobustStats</text>
  <text x="50.92" y="36.39" text-anchor="middle" dy="0.35em">DataArrays</text>
  <text x="74.66" y="50.41" text-anchor="middle" dy="0.35em">Stats</text>
  <text x="40.19" y="68.61" text-anchor="middle" dy="0.35em">Distributions</text>
  <text x="45.18" y="31.63" text-anchor="middle" dy="0.35em">DataFrames</text>
  <text x="46.1" y="50.02" text-anchor="middle" dy="0.35em">NLreg</text>
  <text x="37.66" y="54.46" text-anchor="middle" dy="0.35em">MachineLearning</text>
  <text x="45.02" y="62.51" text-anchor="middle" dy="0.35em">Brownian</text>
  <text x="52.28" y="73.34" text-anchor="middle" dy="0.35em">MCMC</text>
  <text x="50.38" y="63.96" text-anchor="middle" dy="0.35em">NHST</text>
  <text x="49.46" y="68.31" text-anchor="middle" dy="0.35em">ChaosCommunications</text>
  <text x="72.14" y="56.72" text-anchor="middle" dy="0.35em">CrossDecomposition</text>
  <text x="76.8" y="60.76" text-anchor="middle" dy="0.35em">MLBase</text>
  <text x="57.7" y="66.83" text-anchor="middle" dy="0.35em">GLM</text>
  <text x="40.85" y="71.47" text-anchor="middle" dy="0.35em">TimeModels</text>
  <text x="70.19" y="62.19" text-anchor="middle" dy="0.35em">SmoothingKernels</text>
  <text x="56.03" y="42.05" text-anchor="middle" dy="0.35em">Stan</text>
  <text x="68.97" y="50.81" text-anchor="middle" dy="0.35em">Clustering</text>
  <text x="55.09" y="57" text-anchor="middle" dy="0.35em">StatsBase</text>
</g>
</svg>
